<svg id="Capa_1" enable-background="new 0 0 512 512" height="512" viewBox="0 0 512 512" width="512" xmlns="http://www.w3.org/2000/svg"><g><path d="m129.133 490.833h-84.577v-112.716c0-3.866 3.134-7 7-7h77.578l5 6.507v105.709z" fill="#f07281"/><path d="m91.543 371.116v119.715h-46.987v-112.715c0-3.866 3.134-7 7-7z" fill="#eb5569"/><path d="m213.711 490.833h-84.578v-159.989c0-3.866 3.134-7 7-7h77.578l5 5.78v153.709z" fill="#ade194"/><path d="m176.121 323.846v166.985h-46.988v-159.985c0-3.866 3.134-7 7-7z" fill="#97da7b"/><path d="m298.289 490.833h-84.578v-216.375c0-3.866 3.134-7 7-7h77.578l5 6.832v208z" fill="#fee97d"/><path d="m260.699 267.461v223.37h-46.988v-216.37c0-3.866 3.134-7 7-7z" fill="#fee45a"/><path d="m382.867 490.833h-84.578v-272.76c0-3.866 3.134-7 7-7h77.578l5 7.55v264.333z" fill="#ade194"/><path d="m345.276 211.076v279.755h-46.988v-272.755c0-3.866 3.134-7 7-7z" fill="#97da7b"/><path d="m467.444 490.833h-84.578v-325.242c0-3.866 3.134-7 7-7h70.578c3.866 0 7 3.134 7 7z" fill="#8ac9fe"/><path d="m429.854 158.591v332.24h-46.988v-325.24c0-3.866 3.134-7 7-7z" fill="#60b7ff"/><g><path d="m504.5 498.333h-497c-4.142 0-7.5-3.358-7.5-7.5s3.358-7.5 7.5-7.5h497c4.142 0 7.5 3.358 7.5 7.5s-3.358 7.5-7.5 7.5z" fill="#918291"/></g><path d="m435.999 22.507-50.604-8.624c-8.169-1.396-15.916 4.1-17.307 12.267-1.392 8.167 4.1 15.915 12.267 17.307l14.906 2.54-352.356 249.748c-6.759 4.791-8.354 14.153-3.564 20.912 2.924 4.126 7.551 6.327 12.25 6.327 3 0 6.028-.897 8.661-2.763l352.357-249.749-2.54 14.906c-1.392 8.167 4.1 15.915 12.267 17.307.853.146 1.701.216 2.538.216 7.177 0 13.522-5.169 14.769-12.482l8.624-50.604c1.391-8.168-4.102-15.916-12.268-17.308z" fill="#8ac9fe"/></g></svg>